<?xml version="1.0" standalone="no"?><!DOCTYPE svg PUBLIC "-//W3C//DTD SVG 1.1//EN" "http://www.w3.org/Graphics/SVG/1.1/DTD/svg11.dtd" ><svg xmlns="http://www.w3.org/2000/svg"><metadata>Generated by Glyphter</metadata><defs><font id="pokemon" horiz-adv-x="0"><font-face units-per-em="1024" ascent="1024" descent="0" font-family="pokemon" font-weight="normal" /><missing-glyph horiz-adv-x="0" /><glyph unicode="&#x0041;" d="M304.616,1022.828C304.418,1023.402,304.845,1024,305.451,1024C305.451,1024,666.315,1024,666.315,1024C666.702,1024,667.046,1023.747,667.16,1023.378C667.16,1023.378,832.91,487.866,832.91,487.866C833.084,487.299,832.661,486.723,832.065,486.723C832.065,486.723,591.824,486.723,591.824,486.723C591.531,486.723,591.321,486.444,591.401,486.161C591.401,486.161,729.185,1.13,729.185,1.13C729.454,0.189,728.22,-0.425,727.632,0.357C727.632,0.357,192.179,712.425,192.179,712.425C191.741,713.007,192.157,713.838,192.885,713.838C192.885,713.838,410.924,713.838,410.924,713.838C411.227,713.838,411.439,714.137,411.339,714.423C411.339,714.423,304.616,1022.828,304.616,1022.828C304.616,1022.828,304.616,1022.828,304.616,1022.828" class="icon-electric"/><glyph unicode="&#x0042;" d="M205.959,212.517C205.959,212.517,370.208,260.143,370.208,260.143C370.208,260.143,512.073,0.752,512.073,0.752C512.259,0.416,512.741,0.416,512.925,0.752C512.925,0.752,654.79,260.143,654.79,260.143C654.79,260.143,819.041,212.517,819.041,212.517C819.409,212.411,819.751,212.753,819.641,213.121C819.641,213.121,772.008,374.12,772.008,374.12C772.008,374.12,1024.246,512.075,1024.246,512.075C1024.584,512.259,1024.584,512.741,1024.248,512.925C1024.248,512.925,769.93,652.018,769.93,652.018C769.93,652.018,819.641,820.043,819.641,820.043C819.751,820.411,819.409,820.753,819.041,820.647C819.041,820.647,650.938,771.904,650.938,771.904C650.938,771.904,512.925,1024.248,512.925,1024.248C512.741,1024.584,512.259,1024.584,512.075,1024.248C512.075,1024.248,374.062,771.904,374.062,771.904C374.062,771.904,205.959,820.647,205.959,820.647C205.591,820.753,205.249,820.411,205.359,820.043C205.359,820.043,255.07,652.018,255.07,652.018C255.07,652.018,0.752,512.925,0.752,512.925C0.416,512.741,0.416,512.259,0.752,512.075C0.752,512.075,252.99,374.12,252.99,374.12C252.99,374.12,205.359,213.121,205.359,213.121C205.249,212.753,205.591,212.411,205.959,212.517C205.959,212.517,205.959,212.517,205.959,212.517M333.415,510.731C333.415,510.731,449.777,447.091,449.777,447.091C449.777,447.091,513.417,330.731,513.417,330.731C513.601,330.393,514.085,330.393,514.269,330.731C514.269,330.731,577.909,447.091,577.909,447.091C577.909,447.091,694.269,510.731,694.269,510.731C694.605,510.915,694.605,511.399,694.269,511.583C694.269,511.583,577.909,575.223,577.909,575.223C577.909,575.223,514.269,691.583,514.269,691.583C514.085,691.921,513.601,691.921,513.417,691.583C513.417,691.583,449.777,575.223,449.777,575.223C449.777,575.223,333.415,511.583,333.415,511.583C333.079,511.399,333.079,510.915,333.415,510.731C333.415,510.731,333.415,510.731,333.415,510.731" class="icon-fairy"/><glyph unicode="&#x0043;" d="M176.968,938.868C189.36,987.796,233.686,1024,286.466,1024C326.056,1024,360.89,1003.63,381.058,972.8C381.058,972.8,414.084,972.8,414.084,972.8C434.602,993.856,463.268,1006.932,494.99,1006.932C541.498,1006.932,581.442,978.822,598.758,938.666C598.758,938.666,626.408,938.666,626.408,938.666C643.734,949.482,664.206,955.732,686.136,955.732C732.646,955.732,772.588,927.622,789.904,887.466C789.904,887.466,865.094,887.466,865.094,887.466C865.736,887.466,866.338,887.292,866.856,886.992C870.29,887.306,873.768,887.466,877.282,887.466C939.664,887.466,990.232,836.896,990.232,774.516C990.232,774.516,990.232,435.828,990.232,435.828C990.232,435.828,990.234,435.2,990.234,435.2C990.234,435.2,990.232,434.572,990.232,434.572C990.232,434.572,990.232,429.694,990.232,429.694C990.232,427.628,990.176,425.57,990.064,423.522C983.268,188.566,771.998,0,512.366,0C248.448,0,34.5,194.846,34.5,435.2C34.5,551.218,84.35,656.634,165.608,734.65C165.406,621.544,167.316,504.612,176.122,506.618C199.702,511.994,181.278,862.32,176.968,938.868C176.968,938.868,176.968,938.868,176.968,938.868" class="icon-fighting"/><glyph unicode="&#x0044;" d="M705.016,233.712C717.668,279.974,693.11,375.08,693.11,375.08C693.11,375.08,675.298,297.602,647.466,268.966C623.722,244.54,594.632,227.598,552.912,223.146C587.022,239.714,610.48,274.26,610.48,314.19C610.48,370.242,564.256,415.682,507.236,415.682C450.216,415.682,403.99,370.242,403.99,314.19C403.99,298.882,407.44,284.364,413.614,271.348C377.95,299.76,372.342,345.312,372.342,345.312C372.342,345.312,332.518,179.972,442.25,102.196C551.98,24.42,766.938,91.272,766.938,91.272C766.938,91.272,459.32,-125.174,231.372,110.4C35.014,313.332,180.122,580.494,180.122,580.494C180.122,580.494,173.856,555.71,173.856,526.94C173.856,498.17,189.454,476.28,189.454,476.28C189.454,476.28,235.984,574.358,272.196,614.244C306.468,651.992,349.43,682.608,386.538,709.052C415.102,729.408,440.198,747.292,455.186,764.054C537.74,856.362,487.122,1024.5,487.122,1024.5C487.122,1024.5,580.182,942.46,606.162,836.504C616.066,796.116,609.694,750.162,603.998,709.068C594.75,642.356,587.276,588.45,654.086,591.948C762.05,597.602,668.232,764.054,668.232,764.054C668.232,764.054,913.136,635.334,894.84,410.21C876.542,185.086,627.148,133.906,627.148,133.906C627.148,133.906,692.362,187.45,705.016,233.712C705.016,233.712,705.016,233.712,705.016,233.712" class="icon-fire"/><glyph unicode="&#x0045;" d="M357.425,68.5C507.431,68.5,635.855,151.87,688.873,270.054C689.521,271.496,476.015,214.568,482.823,234.692C485.863,243.678,616.743,291.49,712.097,347.259C766.903,379.313,792.142,447.167,792.142,447.167C792.142,447.167,699.807,402.337,653.129,390.965C559.065,368.045,476.263,370.513,476.263,372.901C476.263,378.065,613.753,404.189,804.85,520.639C894.736,575.413,919.15,669.761,919.15,669.761C919.15,669.761,820.328,610.897,760.587,591.463C618.915,545.377,489.631,531.489,489.631,537.725C489.631,551.077,603.405,582.363,724.033,640.813C786.754,671.203,841.072,710.907,904.018,755.061C1007.014,827.303,1024,955.968,1024,955.968C1024,955.968,922.416,890.448,872.842,868.69C668.283,778.905,487.659,731.809,357.425,721.613C160.832,706.221,0,569.055,0,390.965C0,212.872,160.024,68.5,357.425,68.5C357.425,68.5,357.425,68.5,357.425,68.5" class="icon-flying"/><glyph unicode="&#x0046;" d="M737.904,3.546C645.538,-1.182,539.792,-1.182,503.856,3.546C223.54,40.424,0,245.374,0,522.4C0,799.426,229.23,1024,512,1024C794.77,1024,1024,799.426,1024,522.4C1024,393.558,974.414,276.062,892.92,187.226C870.79,163.104,901.154,146.184,932.004,128.992C962.26,112.13,992.984,95.008,975.128,70.576C955.452,43.654,848.784,9.222,737.904,3.546C737.904,3.546,737.904,3.546,737.904,3.546M440,585.1C440,541.816,404.182,506.726,360,506.726C315.818,506.726,280,541.816,280,585.1C280,614.13,296.11,639.472,320.048,653.018C321.426,615.276,352.458,585.102,390.538,585.102C390.538,585.102,440,585.102,440,585.102C440,585.102,440,585.1,440,585.1C440,585.1,440,585.1,440,585.1M687.952,653.018C686.574,615.276,655.542,585.102,617.462,585.102C617.462,585.102,568,585.102,568,585.102C568,585.102,568,585.1,568,585.1C568,541.816,603.818,506.726,648,506.726C692.182,506.726,728,541.816,728,585.1C728,614.13,711.89,639.472,687.952,653.018C687.952,653.018,687.952,653.018,687.952,653.018" class="icon-ghost"/><glyph unicode="&#x0047;" d="M190.548,131.225C186.899,134.658,183.291,138.156,179.723,141.724C-8.574,330.019,-8.574,635.309,179.723,823.605C368.019,1011.903,968.005,1024.5,968.005,1024.5C968.005,1024.5,1049.902,330.019,861.607,141.724C694.374,-25.509,434.862,-44.217,246.984,85.597C246.984,85.597,398.37,271.374,398.37,271.374C398.37,271.374,640.373,323.622,640.373,323.622C640.373,323.622,442.827,343.37,442.827,343.37C442.827,343.37,568.37,471.197,568.37,471.197C568.37,471.197,711.276,502.503,711.276,502.503C711.276,502.503,598.274,535.968,598.274,535.968C598.274,535.968,711.276,739.82,711.276,739.82C711.276,739.82,550.542,559.531,550.542,559.531C550.542,559.531,488.473,647.12,488.473,647.12C488.473,647.12,510.322,502.503,510.322,502.503C510.322,502.503,398.37,376.296,398.37,376.296C398.37,376.296,346.474,535.97,346.474,535.97C346.474,535.97,346.474,323.622,346.474,323.622C346.474,323.622,190.548,131.225,190.548,131.225" class="icon-grass"/><glyph unicode="&#x0048;" d="M225.529,143.89C225.251,143.89,225.057,144.164,225.149,144.426C225.149,144.426,486.58,883.133,486.58,883.133C486.638,883.293,486.79,883.401,486.96,883.401C486.96,883.401,766.045,883.401,766.045,883.401C766.215,883.401,766.369,883.293,766.425,883.131C766.425,883.131,1023.978,144.424,1023.978,144.424C1024.068,144.162,1023.874,143.89,1023.598,143.89C1023.598,143.89,233.385,143.89,233.385,143.89C233.385,143.89,225.529,143.89,225.529,143.89C225.529,143.89,225.529,143.89,225.529,143.89M0.402,141C0.122,141,-0.072,141.28,0.026,141.542C0.026,141.542,194.706,661.288,194.706,661.288C194.764,661.446,194.914,661.55,195.082,661.55C195.082,661.55,364.237,661.55,364.237,661.55C364.517,661.55,364.711,661.272,364.615,661.01C364.615,661.01,176.364,141.264,176.364,141.264C176.308,141.106,176.156,141,175.986,141C175.986,141,0.402,141,0.402,141C0.402,141,0.402,141,0.402,141" class="icon-ground"/><glyph unicode="&#x0049;" d="M775.872,958.783C775.872,958.783,779.102,674.994,779.102,674.994C779.102,674.994,531.579,556.172,531.579,556.172C531.579,556.172,528.527,824.123,528.527,824.123C528.527,824.123,775.872,958.783,775.872,958.783C775.872,958.783,775.872,958.783,775.872,958.783M1024,511.602C1024,511.602,778.969,371.447,778.969,371.447C778.969,371.447,533.792,511.824,533.792,511.824C533.792,511.824,778.842,640.543,778.842,640.543C778.842,640.543,1024,511.602,1024,511.602C1024,511.602,1024,511.602,1024,511.602M490.208,511.602C490.208,511.602,245.177,371.447,245.177,371.447C245.177,371.447,0,511.824,0,511.824C0,511.824,245.049,640.543,245.049,640.543C245.049,640.543,490.208,511.602,490.208,511.602C490.208,511.602,490.208,511.602,490.208,511.602M242.424,959.944C242.424,959.944,496.749,833.988,496.749,833.988C496.749,833.988,490.247,559.499,490.247,559.499C490.247,559.499,250.116,678.426,250.116,678.426C250.116,678.426,242.424,959.944,242.424,959.944C242.424,959.944,242.424,959.944,242.424,959.944M782.793,67.554C782.793,67.554,528.467,193.512,528.467,193.512C528.467,193.512,534.97,468.003,534.97,468.003C534.97,468.003,775.1,349.074,775.1,349.074C775.1,349.074,782.793,67.554,782.793,67.554C782.793,67.554,782.793,67.554,782.793,67.554M251.207,65C251.207,65,247.975,348.789,247.975,348.789C247.975,348.789,495.5,467.611,495.5,467.611C495.5,467.611,498.552,199.662,498.552,199.662C498.552,199.662,251.207,65,251.207,65C251.207,65,251.207,65,251.207,65" class="icon-ice"/><glyph unicode="&#x004a;" d="M1024,512C1024,229.23,794.77,0,512,0C229.23,0,0,229.23,0,512C0,794.77,229.23,1024,512,1024C794.77,1024,1024,794.77,1024,512C1024,512,1024,512,1024,512M804.57,512C804.57,350.417,673.583,219.43,512,219.43C350.417,219.43,219.43,350.417,219.43,512C219.43,673.583,350.417,804.57,512,804.57C673.583,804.57,804.57,673.583,804.57,512C804.57,512,804.57,512,804.57,512" class="icon-normal"/><glyph unicode="&#x004b;" d="M855.642,237.102C959.048,319.784,1024,439.248,1024,572.1C1024,821.678,794.77,1024,512,1024C229.23,1024,0,821.678,0,572.1C0,444.044,60.348,328.428,157.31,246.198C151.434,225.908,148.21,203.838,148.21,180.76C148.21,80.93,208.534,0,282.948,0C331.3,0,373.704,34.17,397.474,85.492C421.244,34.17,463.648,0,512,0C556.076,0,595.208,28.392,619.79,72.286C644.372,28.392,683.504,0,727.578,0C801.992,0,862.316,80.93,862.316,180.76C862.316,200.432,859.972,219.372,855.642,237.102C855.642,237.102,855.642,237.102,855.642,237.102M808.422,563.138C808.422,436.43,672.692,333.712,505.264,333.712C337.834,333.712,202.106,436.43,202.106,563.138C202.106,689.846,337.834,792.564,505.264,792.564C672.692,792.564,808.422,689.846,808.422,563.138C808.422,563.138,808.422,563.138,808.422,563.138" class="icon-poison"/><glyph unicode="&#x004c;" d="M912.945,173.54C912.945,173.54,783.811,69.971,526.839,112.829C331.878,145.347,227.895,360.262,227.895,475.783C227.895,749.672,430.609,812.001,567.658,812.001C704.705,812.001,794.108,678.386,794.108,574.935C794.108,471.484,720.94,380.998,607.074,380.998C493.21,380.998,459.486,460.937,459.486,534.431C459.486,607.923,518.946,633.816,573.174,633.816C627.402,633.816,645.97,587.519,645.97,547.728C645.97,507.936,615.097,493.687,589.346,493.687C563.595,493.687,561.049,506.678,551.194,520.331C541.337,533.983,563.763,585.66,526.839,585.66C489.915,585.66,483.033,526.252,483.033,526.252C483.033,526.252,496.494,411.574,607.074,413.552C717.656,415.532,770.116,501.021,754.87,585.66C739.624,670.302,657.481,760.241,513.318,742.067C369.154,723.893,310.294,578.23,336.239,422.565C362.183,266.898,548.67,176.704,695.296,209.154C841.923,241.603,987.961,347.755,987.961,616.89C987.961,886.027,754.87,1047.802,476.93,1021.142C198.99,994.481,26.457,751.486,37.5,459.525C48.544,167.563,325.582,8.552,559.845,0.357C794.108,-7.84,937.722,127.769,937.722,127.769C937.722,127.769,970.019,156.57,957.356,179.06C944.694,201.551,912.945,173.54,912.945,173.54C912.945,173.54,912.945,173.54,912.945,173.54" class="icon-psychic"/><glyph unicode="&#x004d;" d="M790.64,533.851C790.582,533.931,790.558,534.031,790.574,534.129C790.574,534.129,855.767,914.274,855.767,914.274C855.797,914.45,855.951,914.577,856.126,914.577C856.126,914.577,876.76,914.577,876.76,914.577C876.919,914.577,877.059,914.473,877.107,914.322C877.107,914.322,1023.983,449.278,1023.983,449.278C1024.029,449.134,1023.979,448.975,1023.859,448.881C1023.859,448.881,915.565,364.33,915.565,364.33C915.404,364.204,915.17,364.236,915.049,364.402C915.049,364.402,790.64,533.851,790.64,533.851C790.64,533.851,790.64,533.851,790.64,533.851M0,281.843C0,281.685,0.102,281.545,0.251,281.495C0.251,281.495,223.488,208.504,223.488,208.504C223.595,208.468,223.715,208.486,223.809,208.55C223.809,208.55,722.794,553.037,722.794,553.037C722.878,553.095,722.934,553.185,722.948,553.285C722.948,553.285,776.457,912.326,776.457,912.326C776.491,912.545,776.32,912.743,776.098,912.743C776.098,912.743,334.121,912.743,334.121,912.743C334.011,912.743,333.909,912.695,333.839,912.611C333.839,912.611,0.084,509.986,0.084,509.986C0.03,509.921,0,509.839,0,509.753C0,509.753,0,281.843,0,281.843C0,281.843,0,281.843,0,281.843M316.511,189.907C316.511,189.907,560.392,110.018,560.392,110.018C560.502,109.982,560.624,110,560.718,110.068C560.718,110.068,851.075,318.343,851.075,318.343C851.237,318.457,851.276,318.678,851.167,318.842C851.167,318.842,742.32,480.817,742.32,480.817C742.206,480.986,741.979,481.03,741.811,480.915C741.811,480.915,316.511,189.907,316.511,189.907C316.511,189.907,316.511,189.907,316.511,189.907" class="icon-rock"/><glyph unicode="&#x004e;" d="M0.602,511.807C0.466,512.039,0.466,512.327,0.602,512.561C0.602,512.561,258.09,952.493,258.09,952.493C258.224,952.721,258.47,952.861,258.734,952.861C258.734,952.861,769.089,952.861,769.089,952.861C769.355,952.861,769.601,952.719,769.735,952.489C769.735,952.489,1024.399,512.557,1024.399,512.557C1024.534,512.327,1024.534,512.041,1024.399,511.811C1024.399,511.811,769.735,72.372,769.735,72.372C769.601,72.142,769.355,72,769.089,72C769.089,72,258.734,72,258.734,72C258.47,72,258.224,72.14,258.09,72.368C258.09,72.368,0.602,511.807,0.602,511.807C0.602,511.807,0.602,511.807,0.602,511.807M749.735,512.431C749.735,381.454,643.557,275.276,512.581,275.276C381.605,275.276,275.426,381.454,275.426,512.431C275.426,643.409,381.605,749.585,512.581,749.585C643.557,749.585,749.735,643.409,749.735,512.431C749.735,512.431,749.735,512.431,749.735,512.431" class="icon-steel"/><glyph unicode="&#x004f;" d="M844.374,330.939C844.374,148.167,695.649,0,512.187,0C328.725,0,180,148.167,180,330.939C180,508.699,494.218,996.903,511.451,1023.544C511.845,1024.152,512.531,1024.152,512.923,1023.544C530.156,996.903,844.374,508.699,844.374,330.939C844.374,330.939,844.374,330.939,844.374,330.939M456.812,106.097C288.245,142.98,317.09,329.709,317.09,329.709C317.09,329.709,363.12,216.988,474.823,180.474C586.524,143.962,721.514,197.513,721.514,197.513C721.514,197.513,625.38,69.215,456.812,106.097C456.812,106.097,456.812,106.097,456.812,106.097" class="icon-water"/><glyph unicode="&#x0050;" d="M684.405,1022.997C685.151,1024.061,686.615,1024.319,687.679,1023.575C687.679,1023.575,760.388,972.662,760.388,972.662C761.452,971.918,761.71,970.452,760.966,969.388C760.966,969.388,659.767,824.862,659.767,824.862C708.965,809.144,742.484,792.19,742.484,792.19C742.484,792.19,660.555,651.264,521.595,651.264C382.635,651.264,283.891,782.61,283.891,782.61C283.891,782.61,318.904,804.954,370.804,824.118C370.804,824.118,259.803,956.404,259.803,956.404C258.969,957.398,259.099,958.88,260.093,959.714C260.093,959.714,328.088,1016.771,328.088,1016.771C329.084,1017.605,330.566,1017.475,331.4,1016.481C331.4,1016.481,471.946,848.984,471.946,848.984C483.98,850.345,496.24,851.107,508.612,851.107C526.395,851.107,544.155,849.754,561.493,847.46C561.493,847.46,684.405,1022.997,684.405,1022.997M711.897,644.589C748.98,671.074,805.093,740.199,805.093,740.199C805.093,740.199,948.423,626.617,948.423,385.782C948.423,144.948,700.627,0,700.627,0C700.627,0,582.235,119.564,553.171,271.128C524.109,422.692,596.164,590.987,596.164,590.987C596.164,590.987,674.813,618.105,711.897,644.589C711.897,644.589,711.897,644.589,711.897,644.589M312.525,644.589C275.443,671.074,219.33,740.199,219.33,740.199C219.33,740.199,76,626.617,76,385.782C76,144.948,323.796,0,323.796,0C323.796,0,442.187,119.564,471.252,271.128C500.314,422.692,428.259,590.987,428.259,590.987C428.259,590.987,349.61,618.105,312.525,644.589C312.525,644.589,312.525,644.589,312.525,644.589" class="icon-bug"/><glyph unicode="&#x0051;" d="M459.446,118.3C478.9,115.322,498.824,113.778,519.112,113.778C735.116,113.778,910.222,288.884,910.222,504.888C910.222,720.894,735.116,896,519.112,896C504.62,896,490.31,895.212,476.228,893.676C583.378,812.498,654.222,671.876,654.222,512C654.222,343.92,575.92,197.12,459.446,118.3C459.446,118.3,459.446,118.3,459.446,118.3M512,0C794.77,0,1024,229.23,1024,512C1024,794.77,794.77,1024,512,1024C229.23,1024,0,794.77,0,512C0,229.23,229.23,0,512,0C512,0,512,0,512,0" class="icon-dark"/><glyph unicode="&#x0052;" d="M561.904,514.238C568.844,518.47,574.732,527.338,579.48,537.194C641.97,511.654,685.884,451.302,685.884,380.92C685.884,287.42,608.384,211.622,512.784,211.622C473.54,211.622,437.346,224.396,408.312,245.922C398.788,250.432,390.952,254.764,384.54,258.31C374.594,263.808,368.072,267.414,363.988,266.85C352.05,265.204,355.516,254.22,358.666,244.242C360.804,237.464,362.798,231.15,359.712,228.546C356.484,225.818,346.028,235.788,333.81,247.436C317.178,263.294,297.282,282.264,287.9,276.566C280.482,272.06,287.684,259.838,296.5,244.878C296.5,244.878,297.154,243.768,297.154,243.768C300.878,237.444,305.194,231.004,309.132,225.128C317.138,213.186,323.586,203.562,320.36,201.934C316.46,199.966,289.288,218.306,266.39,243.768C257.552,253.594,248.992,264.246,241.036,274.144C241.036,274.144,241.036,274.146,241.036,274.146C223.622,295.814,209.114,313.864,200.97,311.726C191.174,309.154,198.584,288.946,209.474,269.5C214.566,260.406,220.556,251.146,225.742,243.128C225.742,243.128,225.742,243.126,225.742,243.126C233.808,230.658,239.93,221.196,237.71,220.032C234.714,218.466,208.352,244.172,190.446,276.566C179.812,295.808,170.882,317.072,163.652,334.286C155.812,352.956,149.972,366.862,146.126,368.262C132.766,373.124,132.766,345.882,138.124,306.564C138.822,301.434,139.864,296.054,141.146,290.576C193.114,122.43,352.756,0,541.634,0C772.668,0,959.956,183.176,959.956,409.136C959.956,624.2,790.298,800.506,574.74,817.012C575.012,827.144,580.3,847.234,580.3,847.234C580.3,847.234,618.354,939.306,620.366,958.98C620.498,960.286,620.656,961.706,620.826,963.216C623.196,984.474,627.606,1024,593.602,1024C575.442,1024,566.998,1010.49,557.34,995.04C557.34,995.04,557.34,995.04,557.34,995.04C553.632,989.108,549.744,982.892,545.06,977.042C511.324,934.912,454.596,882.302,422.43,854.274C354.442,795.032,287.738,746.344,248.834,717.948C248.834,717.948,248.834,717.948,248.834,717.948C248.834,717.948,248.832,717.946,248.832,717.946C231.138,705.032,219.196,696.314,215.5,692.712C187.648,665.56,87.784,485.428,87.784,485.428C87.784,485.428,55.488,427.636,66.968,415.914C78.446,404.194,106.128,406.88,106.128,406.88C106.128,406.88,478.01,492.194,511.304,498.922C520.268,500.734,526.596,501.78,531.454,502.582C544.644,504.76,547.012,505.152,561.904,514.238C561.904,514.238,561.904,514.238,561.904,514.238M298.97,623.872C279.008,604.898,245.902,559.608,245.902,559.608C245.902,559.608,307.43,555.818,341.316,588.028C375.204,620.24,367.44,675.134,367.44,675.134C367.44,675.134,318.93,642.846,298.97,623.872C298.97,623.872,298.97,623.872,298.97,623.872" class="icon-dragon"/><glyph unicode="&#x0053;" d="M288.516,335.264C288.516,335.264,0.5,624.889,0.5,624.889M0.573,624.889C0.573,624.889,288.516,914.514,288.516,914.514M0.5,624.889C0.573,624.889,767.056,624.889,767.056,624.889C909.235,624.889,1024.5,509.624,1024.5,367.444C1024.5,367.444,1024.5,367.444,1024.5,367.444C1024.5,225.265,909.235,110,767.056,110C767.056,110,640.527,110,640.527,110" class="icon-return"/><glyph unicode="&#x0054;" d="C0,1016.602,0,8,0,8C0,8,1024,8,1024,8C1024,8,1024,1016.602,1024,1016.602C1024,1016.602,0,1016.602,0,1016.602" class="icon-pokeball"/></font>
</defs>
</svg>
